<?xml version="1.0" encoding="UTF-8"?>
<!DOCTYPE svg PUBLIC "-//W3C//DTD SVG 1.1//EN" "http://www.w3.org/Graphics/SVG/1.1/DTD/svg11.dtd">
<svg version="1.1" xmlns="http://www.w3.org/2000/svg" xmlns:xlink="http://www.w3.org/1999/xlink" x="0" y="0" width="140" height="22" viewBox="0, 0, 140, 22">
  <g id="Page-1">
    <path d="M0,13.927 C0,9.346 3.315,6.093 7.931,6.093 C10.999,6.093 12.855,7.421 13.848,8.784 L11.281,11.202 C10.569,10.147 9.487,9.593 8.124,9.593 C5.741,9.593 4.071,11.325 4.071,13.927 C4.071,16.53 5.741,18.297 8.124,18.297 C9.487,18.297 11.281,16.688 11.281,16.688 L13.848,19.071 C12.855,20.469 10.999,21.797 7.931,21.797 C3.315,21.797 0,18.543 0,13.927 L0,13.927 z" fill="#000" id="Shape"/>
    <path d="M14.912,21.797 L14.912,0.088 L19.317,0.088 L19.317,21.797 z" fill="#000" id="Shape"/>
    <path d="M20.381,13.892 C20.381,9.557 23.573,6.058 28.127,6.058 C32.585,6.058 35.627,9.408 35.627,14.297 L35.627,15.167 L24.496,15.167 C24.742,17.057 26.263,18.64 28.804,18.64 C30.07,18.64 31.838,18.086 32.805,17.154 L34.537,19.695 C33.051,21.058 30.694,21.77 28.373,21.77 C23.819,21.761 20.381,18.702 20.381,13.892 L20.381,13.892 z M28.127,9.188 C25.683,9.188 24.628,11.017 24.443,12.503 L31.82,12.503 C31.714,11.079 30.73,9.188 28.127,9.188 L28.127,9.188 z" fill="#000" id="Shape"/>
    <path d="M40.568,21.797 L34.264,6.093 L38.687,6.093 L42.784,17.013 L46.881,6.093 L51.339,6.093 L45.035,21.797 L40.568,21.797 z" fill="#000" id="Shape"/>
    <path d="M49.888,13.927 C49.888,9.593 53.08,6.093 57.635,6.093 C62.092,6.093 65.135,9.443 65.135,14.332 L65.135,15.202 L54.003,15.202 C54.25,17.093 55.771,18.675 58.312,18.675 C59.578,18.675 61.345,18.121 62.312,17.189 L64.044,19.73 C62.558,21.093 60.202,21.805 57.881,21.805 C53.326,21.797 49.888,18.728 49.888,13.927 L49.888,13.927 z M57.635,9.215 C55.19,9.215 54.135,11.043 53.951,12.529 L61.327,12.529 C61.222,11.105 60.237,9.215 57.635,9.215 L57.635,9.215 z" fill="#000" id="Shape"/>
    <path d="M66.19,21.797 L66.19,6.471 L70.217,6.471 L70.217,8.564 C71.298,7.201 73.197,6.093 75.105,6.093 L75.105,10.023 C74.824,9.962 74.437,9.927 73.997,9.927 C72.661,9.927 70.885,10.692 70.225,11.668 L70.225,21.788 L66.19,21.788 L66.19,21.797 z" fill="#000" id="Shape"/>
    <path d="M78.622,17.752 L78.622,10.032 L76.169,10.032 L76.169,6.084 L78.622,6.084 L78.622,2.383 L82.544,2.383 L82.544,6.093 L85.542,6.093 L85.542,10.041 L82.544,10.041 L82.544,16.714 C82.544,17.629 83.036,18.341 83.889,18.341 C84.469,18.341 85.023,18.13 85.234,17.91 L86.061,20.847 C85.48,21.366 84.434,21.797 82.816,21.797 C80.091,21.797 78.622,20.381 78.622,17.752 L78.622,17.752 z" fill="#000" id="Shape"/>
    <path d="M85.885,13.927 C85.885,9.593 89.076,6.084 93.631,6.084 C98.089,6.084 101.131,9.434 101.131,14.323 L101.131,15.193 L90.008,15.193 C90.255,17.084 91.776,18.666 94.317,18.666 C95.583,18.666 97.35,18.112 98.317,17.18 L100.049,19.721 C98.564,21.084 96.207,21.797 93.886,21.797 C89.323,21.797 85.885,18.728 85.885,13.927 L85.885,13.927 z M93.631,9.215 C91.187,9.215 90.132,11.043 89.947,12.529 L97.324,12.529 C97.227,11.105 96.234,9.215 93.631,9.215 L93.631,9.215 z" fill="#000" id="Shape"/>
    <path d="M102.195,13.927 C102.195,9.346 105.51,6.093 110.126,6.093 C113.194,6.093 115.049,7.421 116.043,8.784 L113.476,11.202 C112.763,10.147 111.682,9.593 110.319,9.593 C107.936,9.593 106.266,11.325 106.266,13.927 C106.266,16.53 107.936,18.297 110.319,18.297 C111.682,18.297 112.763,17.682 113.476,16.688 L116.043,19.071 C115.049,20.46 113.194,21.797 110.126,21.797 C105.51,21.797 102.195,18.543 102.195,13.927 L102.195,13.927 z" fill="#000" id="Shape"/>
    <path d="M127.746,21.788 L127.746,12.222 C127.746,10.041 126.603,10.023 124.818,10.023 C123.226,10.023 121.951,10.261 121.239,11.21 L121.239,21.788 L117.107,21.788 L117.107,0.079 L121.239,0.079 L121.239,8.115 C122.25,6.911 124.202,6.084 126.77,6.084 C130.216,6.084 131.878,7.562 131.878,10.621 L131.878,21.788 L127.746,21.788 L127.746,21.788 z" fill="#000" id="Shape"/>
  </g>
</svg>
