<svg id="Layer_2" data-name="Layer 2" xmlns="http://www.w3.org/2000/svg" viewBox="0 0 741.61 234.11"><defs><style>.cls-1,.cls-2,.cls-3{fill:#000;}.cls-2{opacity:0.15;}.cls-3{opacity:0.3;}</style></defs><title>waggl</title><path class="cls-1" d="M235.89,115.57q-3.42-5.4-10.8-8.4t-19.37-3A111.87,111.87,0,0,0,173.63,109c-2.19.64-3.51,1.14-5.7,1.83l-10.38,21.32a147.07,147.07,0,0,1,28.8-6.93,83.84,83.84,0,0,1,8.68-.64c4.17-.09,8.64-.13,12.54,1.57a11.21,11.21,0,0,1,5.37,4.5,12.82,12.82,0,0,1,1.66,6.7,31.56,31.56,0,0,1-1.2,8l-1.1,4a68.46,68.46,0,0,0-8.94-1.7,73.87,73.87,0,0,0-8.26-.5,84.59,84.59,0,0,0-17,1.71,53.67,53.67,0,0,0-15.44,5.59,43,43,0,0,0-12.27,10.11,39.4,39.4,0,0,0-7.68,15.19q-2.6,9.42-1.25,15.8A18.85,18.85,0,0,0,147.24,206a26.55,26.55,0,0,0,11.71,5.8,70,70,0,0,0,16.7,1.8,183.07,183.07,0,0,0,26-1.7q11.76-1.69,17.69-2.91l17.43-63.4a64.81,64.81,0,0,0,2.54-16.9A24,24,0,0,0,235.89,115.57Zm-35.63,77.61a95.71,95.71,0,0,1-17.33,1.2q-9.21,0-13.69-3.3t-2.13-11.9a16.57,16.57,0,0,1,4-7.3,19.52,19.52,0,0,1,6.54-4.5,31.2,31.2,0,0,1,8-2.21,59.39,59.39,0,0,1,8.27-.59,50.87,50.87,0,0,1,8.23.59,37.68,37.68,0,0,1,5.47,1.21ZM330.09,106a123.39,123.39,0,0,0-21.66-1.78,66.86,66.86,0,0,0-22.6,3.75,66,66,0,0,0-19,10.49,65.28,65.28,0,0,0-14.55,16.22,75.46,75.46,0,0,0-9.17,20.76q-3.31,12.08-2.58,21.26T245.43,192a25.64,25.64,0,0,0,11.49,9.3,43,43,0,0,0,17.23,3.17A51.24,51.24,0,0,0,288,202.67a81,81,0,0,0,10.37-3.56l-1.08,3.95q-3.21,11.67-11,17.6T264.1,226.6A79.28,79.28,0,0,1,247.62,225a58.83,58.83,0,0,1-12.8-4.16l-9.95,20.38a85.08,85.08,0,0,0,15.18,4.15A99.75,99.75,0,0,0,258.11,247q25.9,0,41.62-11.47t22.51-36.2l24.62-89.59A161.6,161.6,0,0,0,330.09,106ZM303.8,179.33a41.32,41.32,0,0,1-9.25,3.75,40,40,0,0,1-11.21,1.59q-10.48,0-15.18-7t-.51-22.26q3.86-14,13.14-22.64a31.7,31.7,0,0,1,22.34-8.61,71.43,71.43,0,0,1,9.36.5,57.77,57.77,0,0,1,6,1.09ZM408.71,104.2a66.07,66.07,0,0,0-41.59,14.24,65.48,65.48,0,0,0-14.55,16.22,75.57,75.57,0,0,0-9.16,20.76q-3.33,12.08-2.58,21.27T345.71,192a25.8,25.8,0,0,0,11.49,9.29,43.08,43.08,0,0,0,17.23,3.17,51.24,51.24,0,0,0,13.84-1.78,80.5,80.5,0,0,0,10.37-3.56l-1.08,4q-3.21,11.66-11,17.59t-22.2,5.94a78.47,78.47,0,0,1-16.48-1.58,59,59,0,0,1-12.8-4.15l-9.95,20.37a84.72,84.72,0,0,0,15.17,4.15A99.83,99.83,0,0,0,358.39,247q25.91,0,41.63-11.46t22.5-36.21l24.62-89.59A160.75,160.75,0,0,0,430.38,106,123.51,123.51,0,0,0,408.71,104.2Zm-4.63,75.16a41.41,41.41,0,0,1-9.24,3.76,40.44,40.44,0,0,1-11.22,1.58q-10.49,0-15.17-7t-.52-22.26q3.85-14,13.15-22.64a31.7,31.7,0,0,1,22.34-8.61,71.65,71.65,0,0,1,9.36.5,58.77,58.77,0,0,1,6,1.09ZM169.5,95.85c-4.62,8.35-16.75,32.11-21.38,40.2q-8.77,15.31-17.14,29.18T114.7,191.3c-5.28,8.14-10.24,15-14.88,21.32H79.47c-.78-10.2-3.69-58.89-3.69-58.89s-32.5,48.69-38.89,58.89H16.34c-1-6.34-1.94-13.18-2.74-21.32s-1.45-16.83-2-26.07-.86-19-1.1-29.18q-.27-12-.31-24.5l26.55-7.23c-.34,5.75-.68,12.59-.85,19.22s-.32,13.52-.43,20.48-.11,13.76,0,20.38.4,12.7.83,18.21c3.81-6.35,36.81-60.74,36.81-60.74L94.3,116s2.75,60.24,3.07,66.59q5-8.27,10.61-18.21T119.3,144q5.69-10.44,10.93-20.48c3.48-6.64,7.68-14.22,10.5-20ZM472.91,193.2h14.92l-5.61,19.52H464.47l0-.09c-6.38-.25-13.44-1-17.11-2.25q-6.33-2.16-9.34-6.15a16.2,16.2,0,0,1-3-10,51.06,51.06,0,0,1,2.06-13.56L469,66.23l25-6.71L462,176.23a34.18,34.18,0,0,0-1.3,7.21,9,9,0,0,0,1.08,5,7.42,7.42,0,0,0,3.92,3.12A31.11,31.11,0,0,0,472.91,193.2Z" transform="translate(-10.23 -12.89)"/><path class="cls-2" d="M640.4,142.26l-12.53-15.73-31-4.94-29.23,22.93,6.47,50.4L616,200.58l27.2-15.66Zm-32.7,36.38-26.5,4.68,4.66-26.52a27.12,27.12,0,0,1,40.48-18.65,27.12,27.12,0,0,1-18.64,40.49Z" transform="translate(-10.23 -12.89)"/><path class="cls-3" d="M581.15,156.2a27.11,27.11,0,0,1,41.36-23.07c-6-6.27-16.38-13.17-25.61-11.54-14.74,2.61-28,21.75-25.44,36.5l9.74,25.23h0Z" transform="translate(-10.23 -12.89)"/><path class="cls-3" d="M631.3,141.92a27.1,27.1,0,0,1-23,41.38l-27.07,0h0l25.45,8.16c14.75,2.6,31.26-10.55,33.85-25.29C642.13,156.93,637.62,148,631.3,141.92Z" transform="translate(-10.23 -12.89)"/><path class="cls-3" d="M626.34,138.15a27,27,0,0,1,5,3.77,12,12,0,0,0-8.79-8.79A27.31,27.31,0,0,1,626.34,138.15Z" transform="translate(-10.23 -12.89)"/><path class="cls-1" d="M668.76,12.89,554.45,43.3,523.1,156.38l28.39,28.53v27.45h27.1l28.26,28.37L720.41,210.5,751.83,96.85Zm1.71,46.9a4.81,4.81,0,0,1,4.82,7.92,33.38,33.38,0,0,1-.83,14.62L669,80.6a27.26,27.26,0,0,0,.67-11.74,4.79,4.79,0,0,1-2.66-3.1A4.86,4.86,0,0,1,670.47,59.79Zm-30.29,40.7a19.14,19.14,0,1,1,13.54,23.44A19.13,19.13,0,0,1,640.18,100.49ZM604.36,64.91c15,0,25.44,12.13,25.44,27.1v27.1H604.05c-15,0-25.87-12.13-25.88-27.1S589.39,64.91,604.36,64.91Zm34.9,101.29a27.1,27.1,0,0,1-31.4,22l-26.66-4.88h0l-4.91-26.67a27.11,27.11,0,0,1,46.25-23.5,27.19,27.19,0,0,1,8.75,8.75A27.06,27.06,0,0,1,639.26,166.2ZM671.82,189a27.13,27.13,0,0,1-27.12-27.11l0-27.1,27.12,0a27.12,27.12,0,0,1,0,54.23Zm28.41-92.21a4.82,4.82,0,0,1-5.72-2.94,36.69,36.69,0,0,0-12,.54l-1.33-5.56A43.23,43.23,0,0,1,696,88.25a4.88,4.88,0,1,1,4.28,8.54Z" transform="translate(-10.23 -12.89)"/></svg>