<?xml version="1.0" encoding="utf-8"?>
<svg version="1.1" id="Layer_1" xmlns="http://www.w3.org/2000/svg" xmlns:xlink="http://www.w3.org/1999/xlink" x="0px" y="0px"
	 viewBox="0 0 540 110" style="enable-background:new 0 0 540 110;" xml:space="preserve">
<title>ssense</title>
<path d="M482.4,90.6V59.8h48V47.5h-48V19.4h56.2V7h-69.9v96H540V90.6H482.4z M340.4,86.4L295.8,7h-19.2v96h13.7V23.6l44.6,79.4h19.2
	V7h-13.7L340.4,86.4z M199.2,59.8h48V47.5h-48V19.4h56.2V7h-69.9v96h71.3V90.6h-57.6V59.8z M411.8,18h1.4c11.7,0,20.4,6.9,21.1,17.8
	H448c-0.7-18.5-14.3-30.2-35.5-30.2c-20.7,0-34.3,12.3-34.3,27.4s8.9,23.9,24.3,27l15.4,3.2c10.1,2.1,15.1,6.6,15.1,14.4
	s-7,14.4-19.9,14.4h-1.4c-14.4,0-24.5-6.9-24.5-19.9h-13.7c0.7,21.2,15.1,32.2,37.7,32.2c21.2,0,35.5-10.4,35.5-27.3
	c0-15.6-9.6-24.4-26.2-27.7l-15.4-3c-8.1-1.6-13.2-6-13.2-13.4C391.9,24.4,399.9,18,411.8,18 M128.5,18h1.4
	c11.7,0,20.4,6.9,21.1,17.8h13.7C164,17.3,150.4,5.6,129.1,5.6c-20.7,0-34.3,12.3-34.3,27.4s8.9,23.9,24.3,27l15.4,3.2
	c10.1,2.1,15.1,6.6,15.1,14.4s-7,14.4-19.9,14.4h-1.4c-14.4,0-24.5-6.9-24.5-19.9H90.1c0.7,21.2,15.1,32.2,37.7,32.2
	c21.2,0,35.5-10.4,35.5-27.3c0-15.6-9.6-24.4-26.2-27.7l-15.4-3c-8.1-1.6-13.2-6-13.2-13.4C108.6,24.4,116.5,18,128.5,18 M38.4,18
	h1.4c11.7,0,20.4,6.9,21.1,17.8h13.7C73.9,17.3,60.3,5.6,39.1,5.6C18.4,5.6,4.8,18,4.8,33.1s8.9,23.9,24.3,27l15.4,3.2
	c10.1,2.1,15.1,6.6,15.1,14.4S52.5,92,39.6,92h-1.4c-14.4,0-24.5-6.9-24.5-19.9H0c0.7,21.2,15.1,32.2,37.7,32.2
	c21.2,0,35.5-10.4,35.5-27.3c0-15.6-9.6-24.4-26.2-27.7l-15.4-3c-8.1-1.6-13.2-6-13.2-13.4C18.5,24.4,26.5,18,38.4,18"/>
</svg>
