<svg id="svg" xmlns="http://www.w3.org/2000/svg" xmlns:xlink="http://www.w3.org/1999/xlink" width="400" height="68.18181818181819" viewBox="0, 0, 400,68.18181818181819"><g id="svgg"><path id="path0" d="M23.167 0.663 C 23.167 1.232,23.107 1.342,22.750 1.432 C 22.376 1.525,22.333 1.621,22.333 2.356 C 22.333 3.063,22.280 3.195,21.940 3.324 C 21.509 3.488,21.333 4.051,21.333 5.271 C 21.333 5.933,21.296 6.000,20.925 6.000 C 20.551 6.000,20.513 6.072,20.467 6.873 C 20.426 7.593,20.358 7.758,20.083 7.809 C 19.627 7.895,19.506 8.132,19.503 8.947 C 19.500 9.541,19.445 9.651,19.125 9.697 C 18.801 9.743,18.743 9.864,18.701 10.589 C 18.661 11.265,18.581 11.459,18.287 11.589 C 17.833 11.790,17.624 12.850,17.799 14.065 L 17.921 14.917 61.033 14.959 C 103.143 15.000,104.147 15.008,104.244 15.316 C 104.366 15.698,104.801 15.828,105.971 15.831 C 106.734 15.833,106.929 15.904,107.359 16.333 C 107.639 16.614,108.036 16.833,108.263 16.833 L 108.667 16.833 108.667 19.083 L 108.667 21.333 108.269 21.333 C 107.838 21.333,107.673 21.684,107.669 22.613 C 107.667 23.035,107.590 23.154,107.292 23.197 C 106.966 23.243,106.910 23.363,106.867 24.109 C 106.823 24.862,106.767 24.981,106.409 25.070 C 106.112 25.145,106.000 25.287,106.000 25.586 L 106.000 25.999 62.875 26.041 L 19.750 26.083 19.697 26.458 C 19.647 26.808,19.562 26.833,18.430 26.833 C 17.008 26.833,16.233 27.060,16.116 27.510 C 16.055 27.744,15.885 27.833,15.505 27.833 C 14.854 27.833,14.333 28.097,14.333 28.427 C 14.333 28.563,14.150 28.744,13.927 28.829 C 13.703 28.914,13.438 29.138,13.338 29.325 C 13.237 29.513,13.009 29.667,12.831 29.667 C 12.624 29.667,12.468 29.817,12.402 30.083 C 12.326 30.384,12.185 30.500,11.894 30.500 C 11.580 30.500,11.470 30.610,11.392 31.000 C 11.326 31.329,11.191 31.500,10.997 31.500 C 10.648 31.500,10.500 31.823,10.500 32.586 C 10.500 33.071,10.440 33.151,10.042 33.197 C 9.660 33.241,9.575 33.340,9.531 33.792 C 9.498 34.132,9.388 34.333,9.235 34.333 C 8.934 34.333,8.667 35.002,8.667 35.756 C 8.667 36.193,8.552 36.408,8.167 36.693 C 7.732 37.015,7.667 37.167,7.667 37.865 C 7.667 38.609,7.637 38.667,7.250 38.667 C 6.856 38.667,6.833 38.717,6.833 39.583 C 6.833 40.439,6.807 40.500,6.434 40.500 C 6.056 40.500,6.028 40.571,5.917 41.833 C 5.805 43.096,5.778 43.167,5.399 43.167 C 5.026 43.167,5.000 43.227,5.000 44.083 C 5.000 44.950,4.977 45.000,4.583 45.000 C 4.189 45.000,4.167 45.050,4.167 45.917 C 4.167 46.717,4.125 46.833,3.839 46.833 C 3.371 46.833,3.167 47.332,3.167 48.477 C 3.167 49.387,3.133 49.482,2.792 49.530 C 2.465 49.576,2.410 49.696,2.366 50.458 C 2.321 51.250,2.279 51.333,1.926 51.333 C 1.471 51.333,1.333 51.609,1.333 52.518 C 1.333 53.065,1.264 53.201,0.917 53.333 L 0.500 53.492 0.500 57.818 L 0.500 62.143 0.867 62.197 C 1.159 62.239,1.269 62.419,1.409 63.083 C 1.548 63.741,1.660 63.927,1.943 63.968 C 2.160 63.999,2.342 64.178,2.403 64.421 C 2.487 64.757,2.640 64.840,3.335 64.933 C 4.068 65.030,4.167 65.090,4.167 65.438 C 4.167 65.806,4.230 65.833,5.083 65.833 C 5.991 65.833,6.000 65.838,6.000 66.333 L 6.000 66.833 7.333 66.833 C 8.644 66.833,8.667 66.840,8.667 67.250 L 8.667 67.667 10.583 67.667 C 12.176 67.667,12.500 67.709,12.500 67.917 C 12.500 68.138,17.648 68.167,57.833 68.167 C 98.019 68.167,103.167 68.138,103.167 67.917 C 103.167 67.705,103.572 67.667,105.815 67.667 L 108.464 67.667 108.568 67.250 C 108.668 66.853,108.730 66.833,109.899 66.833 C 111.703 66.833,112.167 66.710,112.167 66.229 C 112.167 65.848,112.212 65.833,113.420 65.833 C 114.596 65.833,114.686 65.807,114.864 65.417 C 115.022 65.070,115.169 65.000,115.743 65.000 C 116.486 65.000,116.833 64.777,116.833 64.300 C 116.833 64.052,116.975 64.000,117.649 64.000 C 118.379 64.000,118.475 63.957,118.568 63.583 C 118.645 63.279,118.784 63.167,119.087 63.167 C 119.413 63.167,119.500 63.082,119.500 62.763 C 119.500 62.404,119.598 62.343,120.375 62.220 C 121.104 62.105,121.259 62.019,121.303 61.707 C 121.365 61.277,121.697 61.219,122.002 61.585 C 122.161 61.777,122.265 61.792,122.439 61.648 C 122.724 61.412,122.736 60.886,122.458 60.787 C 122.337 60.743,122.312 60.650,122.398 60.564 C 122.484 60.479,122.577 60.504,122.620 60.625 C 122.715 60.890,123.205 60.895,123.467 60.633 C 123.745 60.355,123.717 60.000,123.417 60.000 C 123.279 60.000,123.167 59.887,123.167 59.750 C 123.167 59.612,123.279 59.500,123.417 59.500 C 123.554 59.500,123.667 59.612,123.667 59.750 C 123.667 60.050,124.022 60.078,124.300 59.800 C 124.584 59.516,124.548 59.156,124.208 58.899 C 123.931 58.688,123.931 58.677,124.208 58.672 C 124.369 58.669,124.500 58.742,124.500 58.833 C 124.500 59.080,125.096 59.035,125.315 58.772 C 125.459 58.599,125.444 58.494,125.252 58.335 C 124.796 57.956,124.919 56.833,125.417 56.833 C 125.769 56.833,125.833 56.756,125.833 56.333 C 125.833 55.775,126.073 55.697,126.525 56.106 C 126.965 56.505,127.481 56.106,127.088 55.671 C 126.635 55.172,126.749 54.000,127.250 54.000 C 127.644 54.000,127.667 53.950,127.667 53.083 C 127.667 52.228,127.693 52.167,128.066 52.167 C 128.527 52.167,128.667 51.894,128.667 50.998 C 128.667 50.460,128.727 50.348,129.042 50.303 C 129.388 50.254,129.420 50.153,129.465 48.969 C 129.513 47.714,129.523 47.686,129.965 47.635 C 130.385 47.587,130.420 47.521,130.467 46.708 C 130.513 45.905,130.551 45.833,130.925 45.833 C 131.308 45.833,131.333 45.777,131.333 44.928 C 131.333 44.117,131.372 44.018,131.708 43.970 C 132.019 43.926,132.109 43.768,132.232 43.042 L 132.380 42.167 134.607 42.167 L 136.833 42.167 136.833 42.833 C 136.833 43.289,136.761 43.500,136.604 43.500 C 136.327 43.500,136.041 44.149,135.869 45.167 C 135.768 45.761,135.667 45.927,135.379 45.969 C 135.068 46.014,135.010 46.144,134.967 46.885 C 134.923 47.637,134.868 47.757,134.542 47.803 C 134.206 47.851,134.167 47.950,134.167 48.750 C 134.167 49.550,134.127 49.649,133.792 49.697 C 133.486 49.740,133.388 49.904,133.259 50.583 C 133.171 51.049,132.969 51.513,132.801 51.634 C 132.635 51.754,132.500 51.950,132.500 52.070 C 132.500 52.190,132.342 52.490,132.148 52.736 C 131.823 53.149,131.817 53.206,132.065 53.480 C 132.442 53.897,132.399 54.167,131.954 54.167 C 131.310 54.167,130.500 55.524,130.500 56.604 C 130.500 56.841,130.402 57.000,130.256 57.000 C 129.942 57.000,129.667 57.517,129.667 58.105 C 129.667 58.377,129.484 58.756,129.219 59.032 C 128.862 59.405,128.757 59.700,128.700 60.491 C 128.638 61.348,128.580 61.489,128.272 61.533 C 127.974 61.575,127.908 61.713,127.866 62.383 C 127.824 63.039,127.746 63.208,127.431 63.328 C 127.040 63.477,126.833 64.058,126.833 65.009 C 126.833 65.311,126.683 65.594,126.407 65.811 C 126.047 66.094,125.988 66.260,126.032 66.865 L 126.083 67.583 181.875 67.625 L 237.667 67.667 237.667 67.250 L 237.667 66.833 239.440 66.833 C 241.194 66.833,241.219 66.828,241.692 66.333 C 242.140 65.865,242.248 65.833,243.422 65.833 C 244.605 65.833,244.684 65.810,244.833 65.417 C 244.969 65.061,245.097 65.000,245.713 65.000 C 246.484 65.000,246.833 64.782,246.833 64.300 C 246.833 64.051,246.975 64.000,247.663 64.000 C 248.399 64.000,248.505 63.955,248.593 63.603 C 248.671 63.295,248.841 63.181,249.344 63.101 C 249.783 63.031,250.084 62.860,250.269 62.577 C 250.531 62.177,250.564 62.170,250.950 62.423 C 251.501 62.784,251.997 62.458,251.588 62.005 C 251.215 61.593,251.277 61.333,251.747 61.333 C 252.046 61.333,252.188 61.221,252.262 60.926 C 252.325 60.678,252.505 60.499,252.724 60.468 C 252.976 60.432,253.099 60.280,253.136 59.958 C 253.177 59.598,253.276 59.500,253.594 59.500 C 253.913 59.500,254.000 59.413,254.000 59.094 C 254.000 58.776,254.098 58.677,254.458 58.636 C 254.818 58.595,254.928 58.485,254.969 58.125 C 255.011 57.765,255.109 57.667,255.428 57.667 C 255.749 57.667,255.833 57.580,255.833 57.250 C 255.833 56.944,255.922 56.833,256.167 56.833 C 256.350 56.833,256.500 56.908,256.500 57.000 C 256.500 57.269,257.001 57.191,257.111 56.905 C 257.166 56.762,257.126 56.559,257.022 56.455 C 256.624 56.057,256.789 55.000,257.250 55.000 C 257.598 55.000,257.667 54.921,257.667 54.518 C 257.667 54.212,257.850 53.839,258.167 53.500 C 258.442 53.206,258.667 52.789,258.667 52.574 C 258.667 52.360,258.854 51.982,259.083 51.734 C 259.419 51.373,259.500 51.112,259.500 50.403 C 259.500 49.566,259.523 49.520,259.958 49.469 C 260.385 49.420,260.420 49.357,260.467 48.552 C 260.510 47.807,260.567 47.680,260.883 47.635 C 261.198 47.591,261.257 47.464,261.299 46.745 C 261.339 46.071,261.420 45.874,261.710 45.745 C 262.129 45.558,262.293 45.073,262.317 43.958 C 262.332 43.229,262.366 43.167,262.750 43.167 C 263.144 43.167,263.167 43.117,263.167 42.250 C 263.167 41.383,263.189 41.333,263.583 41.333 C 263.942 41.333,264.000 41.258,264.002 40.792 C 264.006 40.005,264.173 39.500,264.430 39.500 C 264.799 39.500,265.000 38.917,265.000 37.844 C 265.000 36.877,265.018 36.833,265.417 36.833 C 265.811 36.833,265.833 36.783,265.833 35.917 C 265.833 35.145,265.881 35.000,266.133 35.000 C 266.612 35.000,266.833 34.652,266.833 33.901 C 266.833 33.295,266.888 33.189,267.250 33.098 C 267.591 33.013,267.667 32.892,267.667 32.434 C 267.667 32.126,267.779 31.781,267.917 31.667 C 268.054 31.553,268.167 31.260,268.167 31.016 C 268.167 30.701,268.310 30.487,268.657 30.283 C 269.160 29.985,269.233 29.844,269.405 28.818 C 269.460 28.489,269.691 28.045,269.919 27.831 C 270.248 27.522,270.333 27.278,270.333 26.649 C 270.333 25.995,270.393 25.837,270.676 25.747 C 271.075 25.620,271.333 25.039,271.333 24.268 C 271.333 23.904,271.471 23.596,271.750 23.333 C 272.081 23.022,272.167 22.779,272.167 22.149 C 272.167 21.495,272.227 21.337,272.510 21.247 C 272.996 21.093,273.167 20.507,273.167 18.989 C 273.167 18.262,273.236 17.667,273.321 17.667 C 273.863 17.667,274.000 17.133,273.997 15.030 C 273.995 12.846,273.950 12.633,273.458 12.451 C 273.234 12.369,273.167 12.152,273.167 11.516 C 273.167 10.475,272.950 9.893,272.510 9.753 C 272.317 9.692,272.167 9.501,272.167 9.318 C 272.167 8.968,271.589 8.667,270.917 8.667 C 270.610 8.667,270.510 8.564,270.469 8.208 C 270.428 7.848,270.318 7.739,269.958 7.697 C 269.598 7.656,269.500 7.558,269.500 7.239 C 269.500 6.922,269.413 6.833,269.101 6.833 C 268.821 6.833,268.673 6.716,268.604 6.438 C 268.521 6.111,268.364 6.025,267.680 5.934 C 266.995 5.843,266.846 5.762,266.803 5.454 C 266.754 5.110,266.652 5.080,265.375 5.035 C 264.039 4.988,264.000 4.975,264.000 4.577 C 264.000 4.176,263.971 4.167,262.685 4.167 C 261.440 4.167,261.364 4.146,261.270 3.771 C 261.140 3.253,260.668 3.167,257.979 3.167 C 256.770 3.167,255.833 3.099,255.833 3.012 C 255.833 2.298,258.522 2.333,204.411 2.333 C 154.259 2.333,153.509 2.338,153.339 2.656 C 153.244 2.833,153.167 3.428,153.167 3.977 C 153.167 4.887,153.133 4.982,152.792 5.030 C 152.465 5.076,152.410 5.196,152.366 5.958 C 152.324 6.691,152.264 6.833,151.997 6.833 C 151.602 6.833,151.333 7.310,151.333 8.012 C 151.333 8.367,151.194 8.674,150.917 8.931 C 150.561 9.261,150.500 9.464,150.500 10.325 C 150.500 11.216,150.462 11.333,150.173 11.333 C 149.763 11.333,149.500 11.807,149.500 12.546 C 149.500 12.989,149.409 13.155,149.083 13.303 C 148.693 13.481,148.667 13.571,148.667 14.746 C 148.667 15.970,148.657 16.000,148.253 16.000 C 147.824 16.000,147.725 16.198,147.629 17.250 C 147.595 17.624,147.489 17.763,147.208 17.803 C 146.872 17.851,146.833 17.950,146.833 18.754 C 146.833 19.480,146.757 19.728,146.431 20.053 C 146.147 20.338,145.995 20.730,145.912 21.394 C 145.807 22.240,145.755 22.333,145.397 22.333 C 145.027 22.333,145.000 22.395,145.000 23.250 C 145.000 24.117,144.977 24.167,144.583 24.167 C 144.174 24.167,144.167 24.189,144.167 25.497 C 144.167 26.777,144.151 26.831,143.750 26.932 C 143.320 27.040,143.269 27.206,143.331 28.310 C 143.351 28.677,143.300 28.832,143.181 28.759 C 143.081 28.697,143.000 28.542,143.000 28.413 C 143.000 27.979,142.365 27.833,140.469 27.831 C 138.843 27.829,138.641 27.800,139.000 27.619 C 139.340 27.447,139.426 27.267,139.467 26.637 C 139.510 25.977,139.576 25.850,139.925 25.763 C 140.214 25.690,140.333 25.545,140.333 25.268 C 140.333 24.515,140.543 23.833,140.775 23.833 C 141.096 23.833,141.333 23.133,141.333 22.183 C 141.333 21.507,141.393 21.360,141.729 21.206 C 142.077 21.048,142.139 20.873,142.243 19.763 C 142.343 18.700,142.409 18.500,142.663 18.500 C 143.129 18.500,143.167 18.209,143.167 14.583 C 143.167 10.886,143.141 10.712,142.561 10.491 C 142.236 10.368,142.167 10.223,142.167 9.667 C 142.167 9.110,142.098 8.965,141.771 8.841 C 141.554 8.759,141.327 8.498,141.268 8.262 C 141.200 7.993,141.044 7.833,140.849 7.833 C 140.678 7.833,140.416 7.647,140.266 7.418 C 140.082 7.137,139.780 6.969,139.330 6.897 C 138.780 6.809,138.667 6.725,138.667 6.409 C 138.667 6.121,138.545 6.000,138.177 5.919 C 137.843 5.846,137.670 5.695,137.635 5.447 C 137.591 5.134,137.462 5.076,136.708 5.033 C 135.905 4.987,135.833 4.949,135.833 4.575 C 135.833 4.191,135.778 4.167,134.917 4.167 C 134.009 4.167,134.000 4.162,134.000 3.667 L 134.000 3.167 132.667 3.167 C 131.356 3.167,131.333 3.160,131.333 2.750 C 131.333 2.340,131.311 2.333,130.003 2.333 C 128.737 2.333,128.668 2.314,128.572 1.932 C 128.441 1.409,128.120 1.338,125.875 1.336 L 124.000 1.333 124.000 0.917 L 124.000 0.500 120.333 0.500 C 117.185 0.500,116.667 0.465,116.667 0.250 C 116.667 0.028,111.361 0.000,69.917 0.000 L 23.167 0.000 23.167 0.663 M303.026 1.511 C 302.811 1.597,302.596 1.817,302.548 2.000 C 302.464 2.322,302.319 2.333,298.314 2.333 L 294.167 2.333 294.167 2.750 L 294.167 3.167 292.125 3.169 C 289.960 3.172,289.742 3.223,289.642 3.750 C 289.587 4.046,289.427 4.089,288.206 4.132 C 286.872 4.179,286.833 4.192,286.833 4.590 C 286.833 4.976,286.780 5.000,285.909 5.000 C 285.155 5.000,284.911 5.074,284.583 5.402 C 284.362 5.623,283.934 5.853,283.632 5.914 C 282.657 6.111,282.519 6.178,282.414 6.509 C 282.291 6.895,282.042 6.923,281.676 6.592 C 281.273 6.227,280.844 6.539,281.125 6.993 C 281.423 7.474,281.385 7.636,280.958 7.697 C 280.692 7.735,280.568 7.880,280.532 8.198 C 280.492 8.545,280.378 8.658,280.032 8.698 C 279.718 8.734,279.568 8.859,279.531 9.115 C 279.499 9.342,279.342 9.499,279.115 9.531 C 278.857 9.568,278.735 9.718,278.697 10.042 C 278.639 10.551,278.412 10.622,278.009 10.258 C 277.606 9.893,277.177 10.205,277.458 10.659 C 277.831 11.260,277.729 12.301,277.292 12.363 C 276.965 12.410,276.910 12.529,276.866 13.292 C 276.823 14.036,276.766 14.167,276.486 14.167 C 276.091 14.167,276.054 14.265,275.916 15.698 C 275.822 16.677,275.764 16.820,275.446 16.865 C 275.135 16.909,275.076 17.039,275.033 17.781 C 274.990 18.526,274.933 18.653,274.617 18.698 C 274.290 18.744,274.245 18.864,274.200 19.793 C 274.156 20.727,274.100 20.873,273.659 21.199 C 273.234 21.513,273.167 21.671,273.167 22.353 C 273.167 23.046,273.120 23.150,272.792 23.197 C 272.466 23.243,272.410 23.363,272.367 24.109 C 272.324 24.849,272.263 24.981,271.930 25.065 C 271.503 25.172,271.333 25.701,271.333 26.919 C 271.333 27.539,271.280 27.644,270.917 27.735 L 270.500 27.840 270.500 31.837 L 270.500 35.833 270.917 35.833 C 271.290 35.833,271.333 35.901,271.333 36.486 C 271.333 37.395,271.472 37.667,271.934 37.667 C 272.224 37.667,272.333 37.759,272.333 38.006 C 272.333 38.439,273.386 39.500,273.816 39.500 C 274.028 39.500,274.162 39.631,274.197 39.874 C 274.241 40.185,274.396 40.271,275.115 40.385 C 275.825 40.498,275.989 40.587,276.032 40.886 C 276.076 41.197,276.206 41.257,276.917 41.300 C 277.541 41.337,277.821 41.442,278.032 41.717 C 278.285 42.045,278.518 42.094,280.266 42.187 C 282.063 42.283,282.241 42.323,282.516 42.687 L 282.814 43.083 317.990 43.127 L 353.167 43.170 353.167 44.074 C 353.167 44.883,353.128 44.982,352.792 45.030 C 352.466 45.076,352.410 45.196,352.367 45.948 C 352.324 46.693,352.266 46.820,351.950 46.865 C 351.650 46.907,351.555 47.076,351.428 47.792 C 351.342 48.273,351.217 48.667,351.148 48.667 C 350.821 48.667,350.500 49.250,350.500 49.845 C 350.500 50.431,350.457 50.500,350.087 50.500 C 349.787 50.500,349.645 50.612,349.571 50.907 C 349.509 51.155,349.328 51.334,349.109 51.365 C 348.859 51.401,348.734 51.554,348.698 51.867 C 348.650 52.283,348.582 52.320,347.781 52.367 C 347.030 52.410,346.910 52.466,346.863 52.792 L 346.810 53.167 304.666 53.167 C 261.307 53.167,261.724 53.160,261.548 53.835 C 261.500 54.018,261.363 54.167,261.242 54.167 C 260.831 54.167,260.500 54.686,260.500 55.334 C 260.500 55.868,260.438 55.986,260.135 56.030 C 259.875 56.068,259.727 56.252,259.622 56.667 C 259.540 56.987,259.292 57.442,259.070 57.676 C 258.830 57.929,258.667 58.301,258.667 58.595 C 258.667 58.926,258.530 59.190,258.250 59.400 C 258.021 59.573,257.833 59.847,257.833 60.009 C 257.833 60.172,257.641 60.446,257.406 60.617 C 257.106 60.835,256.950 61.137,256.885 61.622 C 256.812 62.166,256.715 62.327,256.438 62.366 C 256.145 62.408,256.069 62.560,256.000 63.243 C 255.928 63.957,255.860 64.083,255.500 64.167 C 255.138 64.251,255.077 64.367,255.033 65.047 C 254.989 65.720,254.924 65.846,254.574 65.934 C 254.195 66.029,254.167 66.110,254.167 67.101 L 254.167 68.167 303.167 68.167 C 346.611 68.167,352.167 68.138,352.167 67.917 C 352.167 67.701,352.731 67.667,356.247 67.667 L 360.327 67.667 360.432 67.250 C 360.535 66.836,360.548 66.833,362.446 66.833 C 364.466 66.833,365.000 66.693,365.000 66.161 C 365.000 65.863,365.119 65.833,366.333 65.833 C 367.644 65.833,367.667 65.826,367.667 65.417 C 367.667 65.009,367.693 65.000,368.931 65.000 C 370.183 65.000,370.197 64.995,370.384 64.500 C 370.558 64.041,370.638 64.000,371.367 64.000 C 372.074 64.000,372.172 63.955,372.265 63.583 C 372.359 63.210,372.454 63.167,373.185 63.167 C 373.943 63.167,374.000 63.138,374.000 62.750 C 374.000 62.521,374.094 62.333,374.208 62.332 C 374.789 62.330,375.658 61.957,375.748 61.672 C 375.808 61.484,376.033 61.333,376.300 61.302 C 376.615 61.266,376.766 61.141,376.802 60.885 C 376.834 60.658,376.991 60.501,377.219 60.469 C 377.474 60.432,377.599 60.282,377.635 59.968 C 377.675 59.622,377.789 59.508,378.135 59.468 C 378.449 59.432,378.599 59.307,378.635 59.052 C 378.668 58.825,378.825 58.668,379.052 58.635 C 379.307 58.599,379.432 58.449,379.468 58.135 C 379.508 57.789,379.622 57.675,379.968 57.635 C 380.282 57.599,380.432 57.474,380.469 57.219 C 380.501 56.991,380.658 56.834,380.885 56.802 C 381.137 56.766,381.266 56.616,381.301 56.314 C 381.331 56.052,381.505 55.809,381.738 55.702 C 382.027 55.571,382.153 55.337,382.238 54.774 C 382.329 54.168,382.422 54.011,382.717 53.969 C 383.033 53.924,383.090 53.797,383.134 53.042 C 383.180 52.244,383.219 52.167,383.583 52.167 C 383.947 52.167,383.987 52.090,384.033 51.293 C 384.074 50.573,384.142 50.409,384.417 50.357 C 384.909 50.265,384.995 50.034,384.997 48.792 C 385.000 47.703,385.014 47.667,385.417 47.667 C 385.811 47.667,385.833 47.617,385.833 46.750 C 385.833 45.894,385.860 45.833,386.232 45.833 C 386.734 45.833,386.833 45.571,386.833 44.236 C 386.833 43.206,386.849 43.167,387.250 43.167 C 387.659 43.167,387.667 43.142,387.667 41.870 C 387.667 40.580,387.669 40.572,388.171 40.383 L 388.674 40.193 388.629 37.221 L 388.583 34.250 388.125 34.197 C 387.688 34.147,387.667 34.103,387.667 33.239 C 387.667 32.391,387.641 32.333,387.261 32.333 C 386.942 32.333,386.844 32.235,386.803 31.875 C 386.761 31.515,386.652 31.405,386.292 31.364 C 385.975 31.328,385.833 31.215,385.833 31.002 C 385.833 30.682,385.167 29.923,384.185 29.125 C 383.767 28.785,383.438 28.667,382.912 28.667 C 382.307 28.667,382.188 28.609,382.104 28.275 C 382.014 27.913,381.896 27.875,380.566 27.772 C 379.371 27.680,379.041 27.591,378.633 27.247 L 378.141 26.833 340.612 26.831 C 310.341 26.829,303.164 26.788,303.500 26.619 C 303.830 26.452,303.927 26.261,303.968 25.697 C 304.009 25.132,304.100 24.954,304.404 24.838 C 304.803 24.687,304.994 24.243,304.998 23.458 C 304.999 23.120,305.083 23.000,305.317 23.000 C 305.519 23.000,305.697 22.819,305.808 22.500 C 305.904 22.225,306.099 22.000,306.242 22.000 C 306.408 22.000,306.573 21.734,306.699 21.260 C 306.846 20.713,306.997 20.495,307.282 20.424 C 307.551 20.356,307.667 20.206,307.667 19.925 C 307.667 19.609,307.766 19.511,308.125 19.469 C 308.441 19.433,308.599 19.309,308.633 19.068 C 308.672 18.798,308.859 18.686,309.466 18.568 C 310.096 18.446,310.260 18.343,310.303 18.042 C 310.351 17.705,310.450 17.667,311.262 17.667 C 312.115 17.667,312.167 17.643,312.167 17.251 L 312.167 16.836 354.680 16.793 C 396.546 16.751,397.197 16.745,397.430 16.426 C 397.575 16.228,397.667 15.697,397.667 15.051 C 397.667 14.055,397.687 14.000,398.064 14.000 C 398.546 14.000,398.661 13.656,398.664 12.208 C 398.666 11.387,398.720 11.167,398.921 11.167 C 399.273 11.167,399.500 10.478,399.500 9.406 C 399.500 8.712,399.558 8.500,399.750 8.500 C 399.964 8.500,400.000 7.991,400.000 4.917 L 400.000 1.333 351.708 1.344 C 322.010 1.350,303.266 1.415,303.026 1.511 M230.500 14.337 C 230.500 14.865,231.148 15.000,233.678 15.000 L 236.000 15.000 236.000 15.417 C 236.000 15.810,236.051 15.833,236.905 15.833 C 237.717 15.833,237.816 15.872,237.863 16.208 C 237.906 16.510,238.071 16.613,238.700 16.735 C 239.308 16.852,239.495 16.964,239.534 17.235 C 239.568 17.475,239.725 17.600,240.042 17.636 L 240.500 17.689 240.500 20.917 L 240.500 24.145 240.042 24.197 C 239.615 24.246,239.580 24.310,239.533 25.115 C 239.490 25.860,239.433 25.986,239.117 26.031 C 238.801 26.076,238.743 26.203,238.700 26.948 C 238.657 27.692,238.599 27.820,238.284 27.865 C 237.875 27.923,237.719 28.405,237.686 29.708 C 237.668 30.436,237.633 30.500,237.250 30.500 C 236.856 30.500,236.833 30.550,236.833 31.417 C 236.833 32.276,236.808 32.333,236.429 32.333 C 236.063 32.333,236.013 32.422,235.909 33.250 C 235.807 34.066,235.752 34.167,235.406 34.167 C 235.055 34.167,235.013 34.251,234.967 35.042 C 234.923 35.804,234.868 35.924,234.542 35.970 C 234.205 36.018,234.167 36.117,234.167 36.928 C 234.167 37.772,234.140 37.833,233.768 37.833 C 233.317 37.833,233.167 38.107,233.167 38.927 C 233.167 39.392,233.092 39.512,232.750 39.598 C 232.414 39.683,232.333 39.806,232.333 40.239 C 232.333 40.595,232.194 40.906,231.917 41.167 C 231.688 41.382,231.500 41.728,231.500 41.936 C 231.500 42.144,231.362 42.412,231.193 42.532 C 230.825 42.793,230.500 43.370,230.500 43.762 C 230.500 43.918,230.313 44.219,230.083 44.431 C 229.819 44.676,229.667 44.999,229.667 45.311 C 229.667 45.650,229.532 45.904,229.239 46.117 C 228.935 46.338,228.783 46.637,228.715 47.145 C 228.662 47.540,228.514 47.902,228.386 47.952 C 228.257 48.001,228.005 48.329,227.826 48.682 C 227.646 49.034,227.349 49.402,227.166 49.500 C 226.972 49.604,226.833 49.849,226.833 50.089 C 226.833 50.416,226.748 50.500,226.417 50.500 C 226.086 50.500,226.000 50.584,226.000 50.906 C 226.000 51.224,225.902 51.323,225.542 51.364 C 225.182 51.405,225.072 51.515,225.031 51.875 C 224.981 52.306,224.928 52.333,224.159 52.333 C 223.424 52.333,223.329 52.376,223.235 52.750 C 223.143 53.117,223.041 53.167,222.384 53.167 C 221.708 53.167,221.620 53.214,221.449 53.667 C 221.265 54.155,221.233 54.167,220.127 54.167 C 219.079 54.167,218.978 54.198,218.803 54.583 L 218.613 55.000 190.297 55.000 C 170.037 55.000,162.012 54.949,162.092 54.820 C 162.153 54.721,162.251 54.102,162.310 53.445 C 162.406 52.371,162.455 52.245,162.792 52.197 C 163.122 52.150,163.167 52.047,163.167 51.325 C 163.167 50.603,163.213 50.495,163.562 50.407 C 163.895 50.324,163.973 50.173,164.059 49.446 C 164.115 48.971,164.262 48.508,164.386 48.417 C 164.795 48.115,165.000 47.534,165.000 46.678 C 165.000 45.886,165.026 45.833,165.422 45.833 L 165.843 45.833 165.797 43.625 C 165.751 41.478,165.740 41.415,165.375 41.363 C 165.062 41.319,165.001 41.208,165.007 40.697 L 165.013 40.083 165.252 40.522 C 165.383 40.763,165.605 41.005,165.745 41.058 C 165.896 41.116,166.000 41.362,166.000 41.661 L 166.000 42.167 173.508 42.167 L 181.016 42.167 181.252 41.625 C 181.446 41.179,181.488 41.148,181.493 41.452 C 181.506 42.142,181.805 42.167,190.319 42.167 L 198.494 42.167 198.593 41.771 C 198.648 41.553,198.874 41.292,199.096 41.191 C 199.445 41.032,199.500 40.894,199.500 40.170 C 199.500 39.544,199.562 39.333,199.746 39.333 C 200.029 39.333,200.500 38.509,200.500 38.014 C 200.500 37.829,200.650 37.598,200.833 37.500 C 201.017 37.402,201.167 37.223,201.167 37.102 C 201.167 36.982,201.392 36.647,201.667 36.360 C 201.993 36.018,202.167 35.664,202.167 35.341 C 202.167 35.016,202.281 34.784,202.499 34.667 C 202.693 34.564,202.909 34.181,203.017 33.750 C 203.131 33.300,203.320 32.974,203.500 32.917 C 203.827 32.813,203.994 32.359,203.998 31.571 C 203.999 31.242,204.149 30.918,204.417 30.667 C 205.047 30.074,204.998 29.102,204.301 28.383 L 203.768 27.833 195.319 27.833 C 185.474 27.833,186.157 27.709,185.984 29.526 L 185.884 30.583 185.859 29.472 C 185.817 27.666,186.436 27.833,179.816 27.833 L 174.000 27.833 174.000 26.844 C 174.000 25.889,174.016 25.854,174.458 25.803 C 174.885 25.754,174.920 25.690,174.967 24.885 C 175.010 24.140,175.067 24.014,175.383 23.969 C 175.699 23.924,175.757 23.797,175.800 23.059 C 175.840 22.374,175.915 22.184,176.173 22.117 C 176.590 22.008,176.833 21.352,176.833 20.334 C 176.833 19.620,176.878 19.517,177.208 19.470 C 177.534 19.424,177.590 19.304,177.633 18.558 C 177.676 17.818,177.737 17.685,178.070 17.602 C 178.497 17.494,178.667 16.966,178.667 15.741 C 178.667 15.123,178.719 15.016,179.042 14.970 C 179.310 14.932,179.432 14.787,179.469 14.458 L 179.522 14.000 205.011 14.000 C 230.493 14.000,230.500 14.000,230.500 14.337 M170.496 29.125 L 170.493 29.583 170.205 29.228 C 170.046 29.033,169.804 28.833,169.667 28.783 C 169.529 28.734,169.660 28.687,169.958 28.680 C 170.442 28.668,170.500 28.716,170.496 29.125 M166.036 38.167 C 165.995 38.442,165.933 38.667,165.898 38.667 C 165.862 38.667,165.833 38.442,165.833 38.167 C 165.833 37.892,165.895 37.667,165.971 37.667 C 166.047 37.667,166.076 37.892,166.036 38.167 M98.486 43.380 C 98.132 43.651,97.833 44.233,97.833 44.649 C 97.833 44.835,97.694 45.121,97.523 45.285 C 97.117 45.674,96.833 46.230,96.833 46.635 C 96.833 46.814,96.683 47.062,96.499 47.188 C 96.294 47.329,96.109 47.724,96.020 48.215 C 95.901 48.863,95.713 49.170,95.020 49.845 C 94.551 50.302,94.167 50.824,94.167 51.005 C 94.167 51.242,94.054 51.333,93.761 51.333 C 93.124 51.333,92.538 51.617,92.423 51.980 C 92.359 52.183,92.141 52.333,91.867 52.365 C 91.547 52.402,91.401 52.525,91.363 52.792 C 91.319 53.106,91.207 53.167,90.676 53.167 C 89.555 53.167,88.984 53.352,88.826 53.769 C 88.683 54.145,88.610 54.158,86.464 54.203 C 84.311 54.249,84.249 54.260,84.197 54.625 L 84.143 55.000 64.500 55.000 L 44.857 55.000 44.803 54.625 C 44.751 54.257,44.704 54.249,42.142 54.204 C 39.561 54.159,39.533 54.154,39.436 53.767 C 39.328 53.336,38.804 53.167,37.574 53.167 C 36.957 53.167,36.849 53.114,36.803 52.792 C 36.757 52.465,36.637 52.410,35.875 52.366 C 34.966 52.314,34.755 52.078,35.250 51.667 C 35.387 51.553,35.500 51.282,35.500 51.066 C 35.500 50.017,35.907 48.353,36.181 48.281 C 36.368 48.232,36.528 47.906,36.655 47.316 C 36.760 46.826,37.004 46.257,37.197 46.051 C 37.424 45.809,37.577 45.377,37.630 44.822 C 37.683 44.271,37.837 43.831,38.064 43.584 L 38.417 43.202 68.583 43.190 C 92.328 43.180,98.694 43.220,98.486 43.380 " stroke="none" fill="#040404" fill-rule="evenodd"></path><path id="path1" d="" stroke="none" fill="#080404" fill-rule="evenodd"></path><path id="path2" d="" stroke="none" fill="#080404" fill-rule="evenodd"></path><path id="path3" d="" stroke="none" fill="#080404" fill-rule="evenodd"></path><path id="path4" d="" stroke="none" fill="#080404" fill-rule="evenodd"></path></g></svg>